<?xml version="1.0" encoding="UTF-8" standalone="no"?>
<svg
   xmlns:dc="http://purl.org/dc/elements/1.1/"
   xmlns:cc="http://creativecommons.org/ns#"
   xmlns:rdf="http://www.w3.org/1999/02/22-rdf-syntax-ns#"
   xmlns:svg="http://www.w3.org/2000/svg"
   xmlns="http://www.w3.org/2000/svg"
   xmlns:xlink="http://www.w3.org/1999/xlink"
   xml:space="preserve"
   style="enable-background:new -21 1 150 150;"
   viewBox="-21 1 150 150"
   y="0px"
   x="0px"
   id="Layer_1"
   version="1.1"><metadata
   id="metadata52"><rdf:RDF><cc:Work
       rdf:about=""><dc:format>image/svg+xml</dc:format><dc:type
         rdf:resource="http://purl.org/dc/dcmitype/StillImage" /><dc:title></dc:title></cc:Work></rdf:RDF></metadata><defs
   id="defs50">
	<defs
   id="defs5">
		<rect
   id="SVGID_1_"
   x="-21"
   y="1"
   width="150"
   height="150" />
	</defs>
	<clipPath
   id="SVGID_2_">
		<use
   xlink:href="#SVGID_1_"
   style="overflow:visible;"
   id="use7" />
	</clipPath>
	
	<linearGradient
   id="SVGID_3_"
   gradientUnits="userSpaceOnUse"
   x1="54"
   y1="151"
   x2="54"
   y2="1">
		<stop
   offset="0"
   style="stop-color:#007C8F"
   id="stop12" />
		<stop
   offset="0.3707"
   style="stop-color:#007088"
   id="stop14" />
		<stop
   offset="1"
   style="stop-color:#005377"
   id="stop16" />
	</linearGradient>
	
	
	
	
	
	
	
	
	
	
	
	
	
</defs>
<style
   id="style2"
   type="text/css">
	.st0{opacity:0.6;clip-path:url(#SVGID_2_);fill:#D1D1D1;}
	.st1{clip-path:url(#SVGID_2_);fill:url(#SVGID_3_);}
	.st2{clip-path:url(#SVGID_2_);fill:none;stroke:#7ADDFC;stroke-miterlimit:10;}
	.st3{clip-path:url(#SVGID_2_);fill:none;stroke:#529FDD;stroke-miterlimit:10;}
	.st4{clip-path:url(#SVGID_2_);fill:none;}
	.st5{clip-path:url(#SVGID_2_);fill:#FFFFFF;}
</style>
<path
   class="st0"
   d="M 127.8,156 H -8.7 c -3.7,0 -6.8,-3 -6.8,-6.8 V 12.7 c 0,-3.7 3,-6.8 6.8,-6.8 h 136.5 c 3.7,0 6.7,3 6.7,6.8 v 136.5 c 0,3.7 -3,6.8 -6.7,6.8 z"
   clip-path="url(#SVGID_2_)"
   id="path10"
   style="opacity:0.6;fill:#d1d1d1" /><rect
   x="-21"
   y="1"
   class="st1"
   width="150"
   height="150"
   clip-path="url(#SVGID_2_)"
   id="rect19"
   style="fill:url(#SVGID_3_)" /><path
   class="st2"
   d="M 90.3,110.9 H 16.9 c -1.7,0 -3,-1.3 -3,-3 V 42.4 c 0,-1.7 1.3,-3 3,-3 h 73.4 c 1.7,0 3,1.3 3,3 v 65.4 c 0,1.7 -1.3,3.1 -3,3.1 z"
   clip-path="url(#SVGID_2_)"
   id="path21"
   style="fill:none;stroke:#7addfc;stroke-miterlimit:10" /><path
   class="st3"
   d="M 90.3,32.6 H 16.9 c -1.7,0 -3,-1.3 -3,-3 v -46.7 c 0,-1.7 1.3,-3 3,-3 h 73.4 c 1.7,0 3,1.3 3,3 v 46.7 c 0,1.6 -1.3,3 -3,3 z"
   clip-path="url(#SVGID_2_)"
   id="path23"
   style="fill:none;stroke:#529fdd;stroke-miterlimit:10" /><path
   class="st3"
   d="M 90.3,170.5 H 16.9 c -1.7,0 -3,-1.3 -3,-3 v -46.7 c 0,-1.7 1.3,-3 3,-3 h 73.4 c 1.7,0 3,1.3 3,3 v 46.7 c 0,1.6 -1.3,3 -3,3 z"
   clip-path="url(#SVGID_2_)"
   id="path25"
   style="fill:none;stroke:#529fdd;stroke-miterlimit:10" /><path
   class="st3"
   d="m 177.3,69.7 h -73.4 c -1.7,0 -3,-1.3 -3,-3 v -82.3 c 0,-1.7 1.3,-3 3,-3 h 73.4 c 1.7,0 3,1.3 3,3 v 82.3 c 0,1.6 -1.4,3 -3,3 z"
   clip-path="url(#SVGID_2_)"
   id="path27"
   style="fill:none;stroke:#529fdd;stroke-miterlimit:10" /><path
   class="st3"
   d="m 177.3,179 h -73.4 c -1.7,0 -3,-1.3 -3,-3 V 79.5 c 0,-1.7 1.3,-3 3,-3 h 73.4 c 1.7,0 3,1.3 3,3 V 176 c 0,1.6 -1.4,3 -3,3 z"
   clip-path="url(#SVGID_2_)"
   id="path29"
   style="fill:none;stroke:#529fdd;stroke-miterlimit:10" /><path
   class="st3"
   d="m 3.8,69.7 h -73.4 c -1.7,0 -3,-1.3 -3,-3 v -82.3 c 0,-1.7 1.3,-3 3,-3 H 3.8 c 1.7,0 3,1.3 3,3 v 82.3 c 0,1.6 -1.4,3 -3,3 z"
   clip-path="url(#SVGID_2_)"
   id="path31"
   style="fill:none;stroke:#529fdd;stroke-miterlimit:10" /><path
   class="st3"
   d="m 3.8,179 h -73.4 c -1.7,0 -3,-1.3 -3,-3 V 79.5 c 0,-1.7 1.3,-3 3,-3 H 3.8 c 1.7,0 3,1.3 3,3 V 176 c 0,1.6 -1.4,3 -3,3 z"
   clip-path="url(#SVGID_2_)"
   id="path33"
   style="fill:none;stroke:#529fdd;stroke-miterlimit:10" /><path
   class="st4"
   d="M 115.7,151 H -7.7 C -15.1,151 -21,145 -21,137.7 V 14.3 C -21,7 -15,1 -7.7,1 H 115.6 C 123,1 129,7 129,14.3 v 123.3 c 0,7.4 -6,13.4 -13.3,13.4 z"
   clip-path="url(#SVGID_2_)"
   id="path35"
   style="fill:none" /><path
   class="st4"
   d="M 122.3,151 H -14.3 c -3.7,0 -6.8,-3 -6.8,-6.8 V 7.8 C -21,4 -18,1 -14.3,1 h 136.5 c 3.7,0 6.8,3 6.8,6.8 v 136.5 c 0,3.7 -3,6.7 -6.7,6.7 z"
   clip-path="url(#SVGID_2_)"
   id="path37"
   style="fill:none" /><path
   class="st4"
   d="M 122.3,151 H -14.3 c -3.7,0 -6.8,-3 -6.8,-6.8 V 7.8 C -21,4 -18,1 -14.3,1 h 136.5 c 3.7,0 6.8,3 6.8,6.8 v 136.5 c 0,3.7 -3,6.7 -6.7,6.7 z"
   clip-path="url(#SVGID_2_)"
   id="path41"
   style="fill:none" /><path
   class="st4"
   d="M 122.3,151 H -14.3 c -3.7,0 -6.8,-3 -6.8,-6.8 V 7.8 C -21,4 -18,1 -14.3,1 H 129 v 143.3 c 0,3.7 -3,6.7 -6.7,6.7 z"
   clip-path="url(#SVGID_2_)"
   id="path43"
   style="fill:none" />
<path
   d="m 47.578703,88.592443 q -7.396304,15.728847 -12.54563,15.728847 -5.055702,0 -5.991943,-1.21711 -0.842617,-1.21711 -0.842617,-8.051674 0,-6.83456 1.310737,-19.754686 -4.681205,-0.936242 -4.962077,-3.838589 0,-1.497986 1.966106,-1.497986 1.966106,0 3.464092,0.748993 0.842617,-6.740935 1.966106,-13.669119 0.280873,-1.778858 1.778858,-3.370468 1.497986,-1.59161 2.902348,-1.59161 1.217113,0 1.217113,3.838588 0,1.778858 -1.310738,16.384219 2.527851,-0.46812 5.523823,-1.872482 3.089595,-1.404362 3.65134,-1.404362 1.685234,0 1.685234,1.029866 0.09362,0.936241 -3.464092,2.621475 -3.557716,1.591609 -7.677177,2.434226 -1.123489,13.66912 -1.123489,20.690928 0,3.744964 1.123489,3.744964 1.685234,-0.09362 4.493957,-3.932212 2.808724,-3.838589 5.523823,-9.924156 2.808723,-6.179191 3.370467,-6.179191 0.655369,0 0.655369,0.748993 0,2.621475 -2.715099,8.332546 z"
   style="font-style:normal;font-variant:normal;font-weight:normal;font-stretch:normal;font-size:medium;line-height:1.25;font-family:Cookie;-inkscape-font-specification:Cookie;letter-spacing:0px;word-spacing:0px;fill:#ffffff;fill-opacity:1;stroke:none;stroke-width:2.3406024"
   id="path98" /><path
   d="m 62.949149,71.552855 q 4.306709,0 7.115432,3.18322 2.808723,3.089595 2.902347,8.707042 3.838589,-1.123489 6.740936,-2.715099 2.995971,-1.59161 3.18322,-1.59161 0.561744,0 0.561744,0.936241 0,0.936241 -2.715099,2.902347 -2.621475,1.966107 -7.958049,3.932213 -1.123489,8.332545 -6.740936,12.920127 -5.617446,4.493954 -11.234893,4.493954 -5.617446,0 -7.489928,-4.11946 -1.872482,-4.213083 -1.872482,-13.200997 0,-8.987914 1.310737,-17.039588 1.310738,-8.051673 3.370468,-12.639254 2.05973,-4.681205 4.213085,-7.115432 2.246978,-2.527851 4.213085,-2.527851 0.936241,0 1.685234,2.246978 0.842617,2.246979 0.842617,5.523823 0,7.209056 -2.621475,16.852339 1.778858,-0.748993 4.493957,-0.748993 z m 4.213084,16.85234 q -0.748992,0.09362 -3.183219,0.09362 -2.340603,0 -5.24295,-1.59161 -2.808723,-1.685234 -3.838589,-4.587581 -0.936241,2.340602 -2.153354,4.493957 0.187248,7.115432 1.123489,10.205027 0.936241,3.089602 2.995972,3.089602 3.276843,0 6.366439,-2.715105 3.18322,-2.808723 3.932212,-8.987914 z M 58.829688,57.134743 q 0,-3.932213 -1.029865,-3.932213 -0.842617,0 -2.059731,4.119461 -1.123489,4.025837 -2.153354,11.047645 -0.936241,6.928184 -0.936241,13.762743 6.179191,-17.507708 6.179191,-24.997636 z m 2.621475,17.78858 q -1.310738,0 -2.153355,0.842617 -0.748992,0.748993 -0.748992,2.05973 0,2.902348 2.527851,4.868454 2.621475,1.872482 6.272815,1.872482 -0.09362,-3.838588 -1.497986,-6.740936 -1.404362,-2.902347 -4.400333,-2.902347 z"
   style="font-style:normal;font-variant:normal;font-weight:normal;font-stretch:normal;font-size:medium;line-height:1.25;font-family:Cookie;-inkscape-font-specification:Cookie;letter-spacing:0px;word-spacing:0px;fill:#ffffff;fill-opacity:1;stroke:none;stroke-width:2.3406024"
   id="path100" /></svg>